# xmcd CD database file
#
# Track frame offsets:
#	150
#	13606
#	28389
#	42457
#	58110
#	72047
#	86456
#	99562
#	112356
#	125374
#	140886
#	152667
#	165841
#	179906
#	193284
#	207012
#	220434
#	234471
#	247580
#	261106
#	275339
#	289189
#	302302
#	313480
#	327846
#	341230
#
# Disc length: 4731 seconds
#
# Revision: 0
# Processed by: cddbd v1.5.2PL0 Copyright (c) Steve Scherf et al.
# Submitted via: CDex 1.51
#
DISCID=8f12791a
DTITLE=Nat King Cole - Nature Boy CD2
DYEAR=2019
DGENRE=Jazz
TTITLE0=Sweet Lorraine
TTITLE1=That ain't right
TTITLE2=If you can't smile and say yes
TTITLE3=Embraceable you
TTITLE4=Look what you've done to me
TTITLE5=I Realize now
TTITLE6=Besame mucho
TTITLE7=I'm a shy guy
TTITLE8=You're nobody 'til somebody loves you
TTITLE9=Don't blame me
TTITLE10=What can I say after I say I'm sorry?
TTITLE11=I Tho't you ought to know
TTITLE12=Come to baby do
TTITLE13=How does it feel
TTITLE14=Route 66
TTITLE15=How deep is the ocean
TTITLE16=You call it madness
TTITLE17=For sentimental reasons
TTITLE18=Come in out of the rain
TTITLE19=I miss you so
TTITLE20=For once in your life
TTITLE21=Everyone has someone
TTITLE22=Little girl
TTITLE23=My fair lady
TTITLE24=My mother told me
TTITLE25=I Almost lost my mind
EXTD=YEAR: 2019
EXTT0=
EXTT1=
EXTT2=
EXTT3=
EXTT4=
EXTT5=
EXTT6=
EXTT7=
EXTT8=
EXTT9=
EXTT10=
EXTT11=
EXTT12=
EXTT13=
EXTT14=
EXTT15=
EXTT16=
EXTT17=
EXTT18=
EXTT19=
EXTT20=
EXTT21=
EXTT22=
EXTT23=
EXTT24=
EXTT25=
PLAYORDER=
